<?xml version="1.0" encoding="UTF-8"?><svg id="Ebene_1" xmlns="http://www.w3.org/2000/svg" viewBox="0 0 320.85 332.09"><defs><style>.cls-1{fill:#7ea592;}.cls-2{fill:#617e71;}.cls-3{fill:#80a795;}</style></defs><path class="cls-3" d="M4.09,96.09C29.91,43.56,71.52,11.53,129.31,2.15c84.6-13.73,163.87,39.78,185.84,120.9,24.48,90.4-32.26,184.68-123.73,204.99-26.13,5.8-52.15,5.33-78.09-1.15-1.24-.31-2.45-.79-4.69-1.52,6.39-.84,11.44,2.02,17.6,1.39-10.94-8.48-12.35-19.46-10.39-31.38,.59-3.62,.52-5.17-3.98-3.59-6.47,2.27-13.11,1.88-19.43-1.15-4.01-1.92-6.28-4.89-5.57-9.53,1.31-8.53,2.16-17.17,4.17-25.54,2.4-9.98,8.6-16.95,19.34-19.04-1.31,1.09-2.63,2.17-3.93,3.27-8.08,6.81-12.52,15.41-12.55,26.07-.01,3.59-1.2,6.85-2.25,10.18-2.29,7.25,.95,11.65,8.52,12.04,6.16,.32,11.67-1.97,17.52-4.02,.59,7.25-.55,14.27,1.17,21.12,.44,1.77,.6,3.64,1.23,5.33,3.87,10.29,7.47,18.48,23.74,17.87,18.78-.71,36.88-3.91,54.72-9.87,9.94-3.32,13.9-12.53,11.82-22.18-2.02-9.39-6.07-17.56-14.65-22.82-2.35-1.44-4.53-3.17-7.55-5.31,19.86,3.71,27.87,16.04,27.94,41.84,2.75-.35,4.85-2.08,7.05-3.37,13.71-8.07,25.52-18.42,36.93-29.52,8.25-8.03,8.72-17.01,7.23-26.95-3.02-20.02-13.85-35.76-28.04-49.42-7.55-7.27-15.65-13.97-23.49-20.93-1.24-1.11-2.49-2.22-3.64-3.42-5.84-6.09-4.47-13.16,3.47-16.16,7.96-3,16.31-4.67,24.8-5.14,7.61-.42,9.29-2.91,7.41-10.1-4.16-15.85-13.3-26.89-29.12-31.98-2.83-.91-3.36-2.81-2.62-5.46,1.01-3.65,1.92-7.33,3.01-11.55-2.79,.59-4.21,2.29-5.4,3.83-4.67,6.04-10.99,9.95-17.1,14.26-18.92,13.35-32.32,30.55-36.24,54.01-2.69,16.11-.17,31.78,4.11,47.31,3.67,13.32,9.04,26.02,13.85,38.94,.61,1.64,1.89,3.19,1.09,5.8-5.53-9-9.89-18.04-13.82-27.32-8.11-19.16-13.53-38.88-12.87-59.96,.57-18.22,5.98-34.63,17.6-48.78,2.02-2.46,2.5-4.52,1.66-7.63-4.13-15.16-14.07-25.47-27.39-32.69-5.48-2.97-9.08-6.49-10.44-12.77-1.63-7.49-6.25-13.49-11.98-19.56-.12,2.03-.18,3.55-.31,5.06-.64,7.86-4.56,13.75-10.97,18.11-4.56,3.1-9.52,5.51-14.67,7.35-3.73,1.33-5.49,3.72-5.25,7.42,.5,7.67-3.46,11.69-10.21,14.41-8.11,3.27-16.3,6.51-24.95,11.71,4.51,.75,5.83,2.91,6.35,6.41,.9,5.99,6.97,9.55,14.27,8.62,8.78-1.13,17.25,.37,25.6,2.68,4.96,1.37,8.62,4.31,8.57,11.05-3.6-7.82-9.52-7.57-16.03-6.6-8.65,1.29-17.22,3.98-26.15,1.54-6.74-1.85-12.16-4.76-12.55-12.71-.09-1.75-1.36-1.92-2.51-2.59-5.89-3.42-6.37-7.95-1.32-12.37,7.91-6.91,16.36-13.13,25.05-19.01,2.27-1.53,3.83-2.98,3.47-5.94-.44-3.68,1.29-6.48,4.17-8.53,3.93-2.8,7.75-5.86,12-8.06,12.27-6.33,19.16-15.69,17.91-30.37,6.77,.24,11.47,3.66,15.62,8,5.49,5.74,9.14,12.62,11.91,20,.69,1.85,1.43,3.45,3.41,4.61,16.71,9.77,25.32,24.89,28.34,43.6,.1,.63,.3,1.25,.46,1.87,2.04,.52,2.74-1.13,3.75-2.03,7.04-6.24,14.74-11.44,23.72-14.41,3.43-1.14,5.27-3.97,7.73-6.12,4.77-4.16,9.37-8.51,14.82-11.8,.92-.56,1.93-1.84,3.1-1.04,1.32,.91,.7,2.5,.36,3.68-1.26,4.45-3.26,8.65-3.44,13.44-.18,4.91,.39,8.38,5.88,10.78,12.57,5.5,18.18,16.93,22.41,29.17,.54,1.56,.99,3.17,1.67,4.67,3.72,8.13,1.23,13.94-7.22,16.61-5.9,1.87-12,2.63-18.11,3.38-1.32,.16-2.66,.26-3.95,.56-3.06,.73-6.9,1.08-7.73,4.55-.86,3.56,3.1,4.68,5.31,6.34,7.19,5.39,14.65,10.41,21.89,15.73,19.07,14,31.58,32.08,34.57,56.03,.05,.44,.41,.83,.89,1.76,6.67-11.22,11.4-22.81,14.68-34.96,24.44-90.59-33.73-180.71-126.39-196.15C104.26,7.28,38.54,37.64,5.72,96.02l-1.63,.07Z"/><path class="cls-1" d="M89.75,318.17c-17.57-9.53-32.47-22.09-42.67-39.44-13.13-22.33-10.34-44.43,7.91-65.06,10.35-11.71,20.94-23.21,31.63-34.62,8.97-9.58,17.06-19.79,23.97-31.87,1.22,4.07-.03,6.92-1.34,9.72-6.43,13.7-16,25.24-25.58,36.72-6.92,8.3-14.17,16.34-21.44,24.34-20.09,22.1-21.38,44.78-3.88,69.05,8.77,12.16,19.8,21.93,32.06,30.4-.22,.25-.43,.5-.65,.75Z"/><path class="cls-1" d="M112.4,234.32c-.89-12.24-1.49-24.46,2.5-36.34,2.36-7.04,7.38-12,11.6-11.69,4.22,.31,8.12,5.98,9.45,13.45,2.24,12.57-.57,24.43-4.86,36.11-2.75,7.47-.94,11.13,6.66,13.53-7.59,1.71-12.14-1.83-11.92-9.42,.2-7.07,3.69-13.43,4.47-20.4,.79-6.99,1.07-13.95-.65-20.83-.42-1.68-.57-4.01-2.61-4.49-2.25-.52-3.61,1.44-4.8,3-5.33,7-6.88,15.37-8.26,23.75-.73,4.41-1.05,8.88-1.56,13.32Z"/><path class="cls-2" d="M4.09,96.09l1.63-.07c-1.3,2.64-2.61,5.28-3.91,7.92l-1.16-.45c1.15-2.46,2.29-4.93,3.44-7.39Z"/><path class="cls-1" d="M90.4,317.41c1.03,.69,2.06,1.38,3.32,2.23-2.01,.61-3.06-.26-3.97-1.47,.22-.25,.43-.5,.65-.75Z"/><path class="cls-2" d="M.47,106.33c-.17-.21-.45-.42-.47-.65-.01-.17,.31-.36,.48-.55,.11,.11,.32,.24,.3,.33-.06,.3-.2,.58-.32,.86Z"/></svg>